<svg xmlns="http://www.w3.org/2000/svg" viewBox="0 0 1394.32 377.17"><defs><style>.cls-1{fill:#211915;}.cls-2{fill:#b32217;}</style></defs><title>Recurso 1</title><g id="Capa_2" data-name="Capa 2"><g id="Capa_1-2" data-name="Capa 1"><path class="cls-1" d="M1189.7,165.12a158.37,158.37,0,0,1-46.62,54.33,157.62,157.62,0,0,1,46.62,54.68,152.75,152.75,0,0,1,17.15,71.5v31.54h-62.37V345.63a92.56,92.56,0,0,0-7.36-36.8,95.13,95.13,0,0,0-50.48-50.48,92.77,92.77,0,0,0-36.78-7.35H954.51V377.17h-62.4V.61h62.4v188h95.35a92.76,92.76,0,0,0,36.78-7.33,95.47,95.47,0,0,0,30.15-20.34,94,94,0,0,0,20.33-30.49,95.07,95.07,0,0,0,7.36-37.17V62.42h62.37V93.26q0,39.29-17.15,71.86"/><rect class="cls-1" x="1269.28" y="156.67" width="61.68" height="220.5"/><path class="cls-1" d="M484.07,124.83A155.28,155.28,0,0,1,513.7,84.28a160,160,0,0,1,27.87-21.86h-62a153.71,153.71,0,0,0-61,12.25,158.9,158.9,0,0,0-84.46,84.48,153.58,153.58,0,0,0-12.27,61v157h62.4v-157A95,95,0,0,1,391.66,183a93.39,93.39,0,0,1,50.83-50.84,95.1,95.1,0,0,1,37.13-7.32Z"/><path class="cls-1" d="M771.79,62.42V97.54A160.29,160.29,0,0,0,734,74.71a158.35,158.35,0,0,0-122.33,0,161.93,161.93,0,0,0-50.46,33.62,155.77,155.77,0,0,0-34,49.79,158.44,158.44,0,0,0,0,122.32,159,159,0,0,0,84.46,84.47,153.75,153.75,0,0,0,61,12.26h157V62.42Zm-4.48,252.36H672.69a95.1,95.1,0,0,1-37.17-7.35,94.83,94.83,0,0,1-58.18-88,92.37,92.37,0,0,1,7.36-36.79,95.07,95.07,0,0,1,88-57.84,92.71,92.71,0,0,1,36.79,7.35,95.88,95.88,0,0,1,30.14,20.34A94.61,94.61,0,0,1,760,182.66a92.2,92.2,0,0,1,7.36,36.79Z"/><path class="cls-1" d="M287.3,62.42H124.82V0H62.42V62.42H0v62.41H62.42v94.62a153.63,153.63,0,0,0,12.27,61,158.84,158.84,0,0,0,84.46,84.47,153.59,153.59,0,0,0,61,12.26h39.35V314.75H220.14a95.33,95.33,0,0,1-67.65-27.66,93.84,93.84,0,0,1-20.32-30.49,95,95,0,0,1-7.35-37.15V124.83H291.75a155.47,155.47,0,0,1,29.62-40.55,160.34,160.34,0,0,1,27.87-21.86Z"/><path class="cls-2" d="M1388.09,90.14c.2-.39.37-.8.56-1.21s.48-1,.7-1.53c.64-1.5,1.2-3,1.71-4.57a62.51,62.51,0,0,0-93.73-72.07,60.92,60.92,0,0,0-9.85,8,62,62,0,0,0-13.38,20.05c-.29.7-.55,1.4-.82,2.1-.07.21-.15.4-.23.6-.2.57-.38,1.13-.57,1.7s-.3.86-.43,1.3-.22.77-.33,1.15c-.18.64-.37,1.27-.53,1.91,0,.2-.09.39-.13.59a62.13,62.13,0,0,0-1.78,14.79V63h0v62.42H1332a60.56,60.56,0,0,0,24.19-4.85A63,63,0,0,0,1376,107.23a62.25,62.25,0,0,0,10.78-14.44c.33-.61.63-1.22.94-1.83.14-.28.28-.54.41-.82"/></g></g></svg>